<svg xmlns="http://www.w3.org/2000/svg" xml:space="preserve" id="Capa_1" x="0" y="0" version="1.1" viewBox="0 0 512 512"><style>.st0{fill:#f6821f}.st4{fill:#dbdcdd}.st5{fill:#884130}.st7{fill:#a1513d}.st9{fill:#19303f}.st10{fill:#b7b7b7}</style><path d="M308.9 355.9H203.1c-45.7 0-82.9 37.2-82.9 82.9v65.7c0 4.1 3.4 7.5 7.5 7.5h256.6c4.1 0 7.5-3.4 7.5-7.5v-65.7c0-45.7-37.2-82.9-82.9-82.9z" class="st0"/><path fill="#d66d1e" d="M308.9 355.9h-26.2c45.7 0 82.9 37.2 82.9 82.9v65.7c0 4.1-3.4 7.5-7.5 7.5h26.2c4.1 0 7.5-3.4 7.5-7.5v-65.7c0-45.7-37.2-82.9-82.9-82.9z"/><path fill="#003682" d="M308.9 355.9H203.1c-45.7 0-82.9 37.2-82.9 82.9v24.6h271.6v-24.6c0-45.7-37.2-82.9-82.9-82.9z"/><path fill="#012c60" d="M308.9 355.9h-26.2c45.7 0 82.9 37.2 82.9 82.9v24.6h26.2v-24.6c0-45.7-37.2-82.9-82.9-82.9z"/><path d="M237.2 512v-74.1l35.6-39.2c2.8-3.1 2.6-7.8-.5-10.6s-7.8-2.6-10.6.5L224.2 430c-1.3 1.4-2 3.2-2 5v77h15z" class="st4"/><path d="m319.7 354.3-23.3-17.5c-1.8-1.4-4.1-1.8-6.3-1.3-2.2.6-4 2.1-5 4.1l-28 60.7c-.9 1.9-.9 4.1-.1 6s2.3 3.4 4.3 4.2l45.6 17.2c1.5.6 3.1.9 4.7.9 2.6 0 5.1-.7 7.3-2.2 3.5-2.3 5.8-6.2 6-10.4l2.4-45.8c.2-6.2-2.6-12.1-7.6-15.9zM226.9 339.6c-.9-2.1-2.8-3.6-5-4.1-2.2-.6-4.5-.1-6.3 1.3l-23.3 17.5c-5 3.7-7.7 9.7-7.4 15.9l2.4 45.8c.2 4.2 2.5 8.1 6 10.4 2.2 1.4 4.7 2.2 7.3 2.2 1.6 0 3.2-.3 4.7-.9l45.6-17.2c1.9-.7 3.5-2.2 4.3-4.2s.7-4.1-.1-6l-28.2-60.7z" class="st4"/><path d="M298.1 267.7v95.4l-21.3 35.6c-4.4 7.3-12.3 11.8-20.8 11.8s-16.4-4.5-20.8-11.8l-21.3-35.6v-95.4h84.2z" class="st5"/><path fill="#5b3c0a" d="M112 128.5h288V255H112z"/><path d="M125.8 224h49.4v56.6h-49.4c-15.6 0-28.3-12.7-28.3-28.3s12.7-28.3 28.3-28.3z" class="st7"/><path d="M386.2 224h-49.4v56.6h49.4c15.6 0 28.3-12.7 28.3-28.3S401.8 224 386.2 224z" class="st5"/><path fill="#b45f4a" d="M256 342.8c-61.9 0-112.1-50.2-112.1-112.1V117.3h224.2v113.4c0 61.9-50.2 112.1-112.1 112.1z"/><path d="M344.8 117.3v125.1c0 53.6-41.9 97.4-94.8 100.3 2 .1 4 .2 6 .2 61.9 0 112.1-50.2 112.1-112.1V117.3h-23.3z" class="st7"/><path d="M310.3 233c-4.1 0-7.5-3.4-7.5-7.5v-2c0-4.1 3.4-7.5 7.5-7.5s7.5 3.4 7.5 7.5v2c0 4.1-3.3 7.5-7.5 7.5zM201.7 233c-4.1 0-7.5-3.4-7.5-7.5v-2c0-4.1 3.4-7.5 7.5-7.5s7.5 3.4 7.5 7.5v2c0 4.1-3.4 7.5-7.5 7.5zM256 288.5c-13.5 0-26.1-6.6-33.8-17.7-2.4-3.4-1.5-8.1 1.9-10.4 3.4-2.4 8.1-1.5 10.4 1.9 4.9 7.1 12.9 11.3 21.5 11.3s16.6-4.2 21.5-11.3c2.4-3.4 7-4.3 10.4-1.9 3.4 2.4 4.3 7 1.9 10.4-7.7 11.1-20.3 17.7-33.8 17.7z" class="st9"/><path d="M383.3 148.6c-.9-2.4-2.9-4.2-5.4-4.7-80.9-18.1-162.9-18.1-243.7 0-2.5.6-4.5 2.3-5.4 4.7-.9 2.4-.5 5.1 1 7.1l32.4 43.4c2.3 3 6.5 3.9 9.8 2 21.2-12.3 51.9-19.3 84.1-19.3s62.9 7 84.1 19.3c1.2.7 2.5 1 3.8 1 2.3 0 4.6-1.1 6-3l32.4-43.4c1.4-2.1 1.7-4.8.9-7.1z" class="st10"/><path d="m413.8 97.4-45-81.5c-1.1-2-3.1-3.4-5.5-3.8L283.4.1c-.3-.1-.7-.1-1.1-.1h-52.7c-.4 0-.7 0-1.1.1l-79.9 12c-2.3.3-4.3 1.7-5.5 3.8l-45 81.5c-.6 1.1-.9 2.4-.9 3.6v58c0 2.3 1.1 4.6 3 6 1.9 1.4 4.3 1.9 6.6 1.2 49.5-14 99.7-21.1 149.2-21.1s99.7 7.1 149.2 21.1c.7.2 1.4.3 2 .3 1.6 0 3.2-.5 4.5-1.5 1.9-1.4 3-3.6 3-6v-58c0-1.3-.3-2.5-.9-3.6z" class="st4"/><path d="m413.8 97.4-45-81.5c-1.1-2-3.1-3.4-5.5-3.8l-25.2-3.8c.5.5.9 1 1.2 1.6l46.8 84.7c.6 1.2 1 2.5 1 3.8v60.3c0 .9-.2 1.8-.5 2.6 6.2 1.5 12.4 3.2 18.6 4.9.7.2 1.4.3 2 .3 1.6 0 3.2-.5 4.5-1.5 1.9-1.4 3-3.6 3-6v-58c0-1.3-.3-2.5-.9-3.6z" class="st10"/><path d="M256 452.5c-.5 0-1 0-1.5-.1s-.9-.2-1.4-.4c-.4-.2-.9-.4-1.3-.7-.4-.3-.8-.6-1.1-.9-1.4-1.4-2.2-3.3-2.2-5.3 0-.5.1-1 .1-1.5.1-.5.2-1 .4-1.4.2-.5.4-.9.7-1.3.3-.4.6-.8.9-1.1.3-.4.7-.7 1.1-.9.4-.3.8-.5 1.3-.7.4-.2.9-.3 1.4-.4 2.4-.5 5 .3 6.8 2 .4.3.7.7.9 1.1.3.4.5.8.7 1.3.2.5.3.9.4 1.4.1.5.1 1 .1 1.5 0 2-.8 3.9-2.2 5.3-1.2 1.3-3.1 2.1-5.1 2.1zM256 490.5c-.5 0-1 0-1.5-.1s-.9-.2-1.4-.4c-.4-.2-.9-.4-1.3-.7-.4-.3-.8-.6-1.1-.9-.4-.3-.7-.7-.9-1.1-.3-.4-.5-.8-.7-1.3-.2-.5-.3-.9-.4-1.4-.1-.5-.1-1-.1-1.5s.1-1 .1-1.5c.1-.5.2-1 .4-1.4.2-.5.4-.9.7-1.3.3-.4.6-.8.9-1.1.3-.4.7-.7 1.1-.9.4-.3.8-.5 1.3-.7.4-.2.9-.3 1.4-.4 2.4-.5 5 .3 6.8 2 .4.3.7.7.9 1.1.3.4.5.8.7 1.3.2.5.3.9.4 1.4.1.5.1 1 .1 1.5 0 2-.8 3.9-2.2 5.3-1.3 1.3-3.2 2.1-5.2 2.1zM344.5 449.5h-30.8c-4.1 0-7.5-3.4-7.5-7.5s3.4-7.5 7.5-7.5h30.8c4.1 0 7.5 3.4 7.5 7.5s-3.4 7.5-7.5 7.5z" class="st4"/><path fill="#fbad41" d="M300.2 78.2h-1.7c-.1 0-.2 0-.3.1-.3.1-.5.3-.6.6l-2.4 8.3c-1 3.6-.6 6.8 1.1 9.2 1.6 2.2 4.2 3.5 7.4 3.7l12.8.8c.4 0 .7.2.9.5.2.3.3.7.1 1.1-.2.6-.8 1-1.4 1.1l-13.3.8c-7.2.3-15 6.3-17.8 13.5l-1 2.5c-.1.4 0 .8.4.9h46.2c.5 0 1-.4 1.2-.9.8-2.9 1.2-6 1.2-9 .1-18.3-14.6-33.1-32.8-33.2"/><path d="m280.1 120.4.9-3c1-3.6.6-6.8-1.1-9.2-1.6-2.2-4.2-3.5-7.4-3.7l-60.2-.8c-.4 0-.7-.2-1-.5-.2-.3-.3-.7-.1-1.1.2-.6.8-1 1.4-1.1l60.8-.8c7.2-.3 15-6.3 17.8-13.5l3.5-9.2c.1-.4.2-.8.1-1.2-4-17.9-19.8-31.3-38.6-31.3-17.4 0-32.2 11.4-37.5 27.1-3.6-2.7-8-4-12.5-3.5-8.3.8-15.1 7.6-15.9 16.1-.2 2.1-.1 4.2.5 6.3-13.6.4-24.6 11.7-24.6 25.6 0 1.3.1 2.5.3 3.7.1.6.6 1 1.2 1h111.2c.5.1 1.1-.3 1.2-.9" class="st0"/></svg>
